<?xml version="1.0" encoding="UTF-8"?>
<svg version="1.1" xmlns="http://www.w3.org/2000/svg" width="128" height="128">
<path d="M0 0 C3.20879247 2.03005238 4.62927537 3.42299447 5.5078125 7.16015625 C5.85679663 11.70453652 5.43155073 13.48424425 2.4375 17.0625 C-1.5310151 19.29929942 -3.51737197 19.65201862 -8 19 C-10.875 17.8125 -10.875 17.8125 -13 16 C-13.8125 13.3125 -13.8125 13.3125 -14 11 C-16.475 10.505 -16.475 10.505 -19 10 C-19.66 11.98 -20.32 13.96 -21 16 C-19.02544669 16.73627412 -17.05064121 17.47188318 -15.07421875 18.203125 C-13 19 -13 19 -10.625 20.125 C-7.99293392 21.00235536 -5.88088161 21.19238134 -3.125 21.375 C2.87248899 21.89341187 6.78871294 23.57471742 10.9375 28.125 C12.49668572 32.34397311 12.7365053 36.55930629 12 41 C11.03968114 42.36219142 10.03862321 43.69652787 9 45 C8.19491551 47.10836214 8.19491551 47.10836214 7.625 49.3125 C5.05138956 57.28154754 1.15062044 61.63470765 -6.1953125 65.7109375 C-17.52632524 70.91878458 -30.08640163 71.58911244 -42 68 C-52.47361778 64.11564025 -57.77130228 58.14264125 -62.4375 48.125 C-65.23051136 41.15740749 -66.58558946 35.29041853 -63.9375 28.125 C-60.04519958 23.85602535 -55.92792885 22.03835255 -50.375 21 C-49.53066406 20.84015625 -48.68632813 20.6803125 -47.81640625 20.515625 C-45.78743062 20.14416205 -43.75259519 19.80421232 -41.71484375 19.484375 C-35.55270934 18.26117318 -35.55270934 18.26117318 -30.75732422 14.46142578 C-28.33651575 10.51517635 -26.67051545 6.30436147 -25 2 C-24.67 1.67 -24.34 1.34 -24 1 C-20.94820946 1.22319065 -17.92188478 1.58623756 -14.8828125 1.94140625 C-9.51849004 2.05043719 -6.01599564 -0.99037406 0 0 Z M-52.4375 32.625 C-55.43221268 36.36227087 -56.36779239 38.85032755 -56.26953125 43.78125 C-55.56191154 49.60629338 -52.77972253 53.70120546 -48.25 57.3125 C-41.87179001 61.98896069 -35.03846309 63.56745448 -27.25 63.5 C-26.4664917 63.49355469 -25.6829834 63.48710938 -24.87573242 63.48046875 C-15.87521266 63.19975078 -8.289106 60.8083906 -1.875 54.25 C1.25394244 50.17777345 2.95339843 46.1727748 3 41 C1.32746593 35.09693858 -1.57733275 31.20028609 -6.75 27.875 C-20.40866052 20.38476681 -41.57195111 20.21091683 -52.4375 32.625 Z M-58 29 C-60.4294516 32.6441774 -60.16179575 34.71241272 -60 39 C-57.45868642 36.69716746 -55.92889705 34.32686207 -54.3125 31.3125 C-53.87550781 30.50425781 -53.43851563 29.69601563 -52.98828125 28.86328125 C-52.66214844 28.24839844 -52.33601563 27.63351563 -52 27 C-54.53199972 27 -55.83252916 27.71306419 -58 29 Z M-2 27 C-1.04258894 28.60471728 -0.08403595 30.20875329 0.875 31.8125 C1.40867187 32.70582031 1.94234375 33.59914063 2.4921875 34.51953125 C3.61883092 36.37294724 4.79686611 38.19529917 6 40 C7.42041821 37.15916359 7.31452272 35.14522722 7 32 C4.37024473 28.39626129 2.27502658 27.71604923 -2 27 Z " fill="#8A280D" transform="translate(91,25)"/>
<path d="M0 0 C7.75 0.75 7.75 0.75 10 3 C7 4 7 4 2 4 C0.35 7.63 -1.3 11.26 -3 15 C-1.97519531 15.26554687 -0.95039062 15.53109375 0.10546875 15.8046875 C1.46618989 16.16129028 2.82686453 16.51807051 4.1875 16.875 C4.86103516 17.04902344 5.53457031 17.22304688 6.22851562 17.40234375 C9.15662606 18.17365089 11.97077511 18.98798075 14.7734375 20.140625 C17.13732793 21.22088466 17.13732793 21.22088466 20.4375 20.875 C24.8117655 21.028483 26.64433063 22.26864121 30 25 C32.48386059 28.72579089 32.3804212 30.58711402 32 35 C30.625 37.5 30.625 37.5 29 40 C28.5359375 41.7015625 28.5359375 41.7015625 28.0625 43.4375 C25.8897574 50.72257812 21.44785896 55.23874894 15 59 C8.7316199 61.85664838 3.47731296 62.5140139 -3.375 62.4375 C-4.3038501 62.43137695 -5.2327002 62.42525391 -6.18969727 62.41894531 C-12.80363857 62.26766312 -18.25554584 61.47785325 -24 58 C-25.11375 57.38125 -26.2275 56.7625 -27.375 56.125 C-33.03444546 51.54354415 -35.95139402 44.87590626 -38 38 C-38.109375 35.19140625 -38.109375 35.19140625 -38 33 C-37.34 33.33 -36.68 33.66 -36 34 C-34.02 30.7 -32.04 27.4 -30 24 C-31.65 24.33 -33.3 24.66 -35 25 C-36.37466625 27.47636012 -36.37466625 27.47636012 -37 30 C-37.33 29.01 -37.66 28.02 -38 27 C-34.30510094 22.31979453 -31.21854577 21.22155378 -25.40234375 20.1640625 C-22.9986468 19.99990759 -21.28149614 20.2728719 -19 21 C-19.60328125 21.43570313 -20.2065625 21.87140625 -20.828125 22.3203125 C-27.4662523 27.22169284 -27.4662523 27.22169284 -32 34 C-32.69497578 39.38606231 -32.1029087 43.3402042 -29.46484375 48.109375 C-25.40436859 53.35009494 -19.29044345 56.32910096 -13 58 C-2.52100324 59.25114601 7.89401479 58.78273981 17 53 C21.67144075 49.30864584 23.96857884 45.06352696 24.9453125 39.203125 C25.06655004 34.31898402 22.80776308 31.05253977 19.9375 27.3125 C11.47327609 20.64917479 1.4453188 19.98021803 -8.9375 19.4375 C-9.71673828 19.39431641 -10.49597656 19.35113281 -11.29882812 19.30664062 C-13.19907117 19.20171923 -15.09951669 19.1004755 -17 19 C-16.67 18.34 -16.34 17.68 -16 17 C-13.71484375 16.5859375 -13.71484375 16.5859375 -10.9375 16.375 C-10.01839844 16.30023438 -9.09929688 16.22546875 -8.15234375 16.1484375 C-7.08693359 16.07496094 -7.08693359 16.07496094 -6 16 C-5.88785156 15.29488281 -5.77570312 14.58976562 -5.66015625 13.86328125 C-4.93685092 10.72610488 -3.80542309 8.09872094 -2.4375 5.1875 C-1.98246094 4.21167969 -1.52742188 3.23585937 -1.05859375 2.23046875 C-0.53458984 1.12638672 -0.53458984 1.12638672 0 0 Z M21 23 C21.95741106 24.60471728 22.91596405 26.20875329 23.875 27.8125 C24.40867188 28.70582031 24.94234375 29.59914063 25.4921875 30.51953125 C26.61883092 32.37294724 27.79686611 34.19529917 29 36 C30.42041821 33.15916359 30.31452272 31.14522722 30 28 C27.37024473 24.39626129 25.27502658 23.71604923 21 23 Z " fill="#EB6D17" transform="translate(68,29)"/>
<path d="M0 0 C3.20879247 2.03005238 4.62927537 3.42299447 5.5078125 7.16015625 C5.85679663 11.70453652 5.43155073 13.48424425 2.4375 17.0625 C-1.5310151 19.29929942 -3.51737197 19.65201862 -8 19 C-10.875 17.8125 -10.875 17.8125 -13 16 C-13.8125 13.3125 -13.8125 13.3125 -14 11 C-16.475 10.505 -16.475 10.505 -19 10 C-19.66 11.98 -20.32 13.96 -21 16 C-20.195625 16.2475 -19.39125 16.495 -18.5625 16.75 C-17.716875 17.1625 -16.87125 17.575 -16 18 C-15.67 19.32 -15.34 20.64 -15 22 C-20.94 21.01 -20.94 21.01 -27 20 C-26.1905146 18.01959844 -25.37732831 16.04070923 -24.5625 14.0625 C-24.11003906 12.96035156 -23.65757813 11.85820313 -23.19140625 10.72265625 C-22 8 -22 8 -21 7 C-18.66702567 6.95907063 -16.33294775 6.95758277 -14 7 C-16.97 6.01 -19.94 5.02 -23 4 C-23.6496875 6.0109375 -23.6496875 6.0109375 -24.3125 8.0625 C-24.60125 8.88105469 -24.89 9.69960938 -25.1875 10.54296875 C-26.11866481 13.20437624 -26.11866481 13.20437624 -26.8125 16.875 C-29.63828697 20.91183853 -31.45334245 20.9135122 -36.1875 21.9375 C-38.45357758 22.32091941 -40.7235087 22.68423833 -43 23 C-42.7890625 21.0546875 -42.7890625 21.0546875 -42 19 C-39.9609375 18.4453125 -39.9609375 18.4453125 -37.375 18.125 C-33.28315194 17.11524696 -32.20842718 16.31170863 -29.81640625 12.734375 C-28.0221759 9.23693252 -26.51575429 5.62483137 -25 2 C-24.67 1.67 -24.34 1.34 -24 1 C-20.94820946 1.22319065 -17.92188478 1.58623756 -14.8828125 1.94140625 C-9.51849004 2.05043719 -6.01599564 -0.99037406 0 0 Z " fill="#912E0E" transform="translate(91,25)"/>
<path d="M0 0 C1.53668865 0.22467831 3.07968054 0.40796805 4.625 0.5625 C5.44226563 0.64628906 6.25953125 0.73007812 7.1015625 0.81640625 C7.72804687 0.87699219 8.35453125 0.93757813 9 1 C9 1.33 9 1.66 9 2 C7.0641649 2.36315666 5.12624752 2.71522731 3.1875 3.0625 C2.10855469 3.25972656 1.02960937 3.45695312 -0.08203125 3.66015625 C-3 4 -3 4 -6 3 C-10.49068099 3.38234513 -14.66272984 4.26768539 -18.625 6.4375 C-20.99605993 10.8562935 -20.73437931 15.1185375 -20 20 C-18.64211834 24.16383638 -16.92666246 28.07077625 -15 32 C-14.69835938 32.73347656 -14.39671875 33.46695313 -14.0859375 34.22265625 C-12.6971376 36.49569205 -11.43748018 36.99185103 -9 38 C-8.34 38.34160156 -7.68 38.68320313 -7 39.03515625 C-6.34 39.37417969 -5.68 39.71320313 -5 40.0625 C-4.34 40.40410156 -3.68 40.74570313 -3 41.09765625 C0.31699809 42.5941925 3.49257536 43.12460627 7.109375 43.31640625 C7.86347656 43.35830078 8.61757813 43.40019531 9.39453125 43.44335938 C10.17183594 43.48267578 10.94914062 43.52199219 11.75 43.5625 C12.54277344 43.60568359 13.33554688 43.64886719 14.15234375 43.69335938 C16.10137815 43.79902991 18.05066748 43.89997966 20 44 C20 44.33 20 44.66 20 45 C19.07316406 45.06058594 18.14632812 45.12117188 17.19140625 45.18359375 C15.99386719 45.26738281 14.79632813 45.35117188 13.5625 45.4375 C12.36753906 45.51871094 11.17257813 45.59992188 9.94140625 45.68359375 C7.11429756 45.67656114 7.11429756 45.67656114 6 47 C-2.42242434 46.69373002 -9.81948283 43.66320862 -15.75 37.5625 C-21.61220869 30.1964468 -26.10190182 20.60216329 -25.3828125 11.05078125 C-24.50538971 6.35030204 -22.78450196 4.56035854 -18.9375 1.8125 C-12.89341015 -1.35774755 -6.27059592 -3.13529796 0 0 Z " fill="#8C2B0E" transform="translate(51,47)"/>
<path d="M0 0 C-0.60328125 0.43570313 -1.2065625 0.87140625 -1.828125 1.3203125 C-8.4662523 6.22169284 -8.4662523 6.22169284 -13 13 C-13.69497578 18.38606231 -13.1029087 22.3402042 -10.46484375 27.109375 C-6.38805257 32.37115348 -0.29668826 35.27992906 6 37 C8.64759822 37.28348021 11.22281443 37.50164253 13.875 37.625 C14.90753906 37.68300781 14.90753906 37.68300781 15.9609375 37.7421875 C17.64023246 37.83548166 19.32007767 37.91878238 21 38 C21 38.33 21 38.66 21 39 C16.71 39 12.42 39 8 39 C8 39.66 8 40.32 8 41 C-0.40638913 39.64413079 -7.6886746 36.83416625 -13.375 30.25 C-19.31766613 18.36466775 -19.31766613 18.36466775 -19 12 C-18.01 12.495 -18.01 12.495 -17 13 C-15.02 9.7 -13.04 6.4 -11 3 C-12.65 3.33 -14.3 3.66 -16 4 C-17.37466625 6.47636012 -17.37466625 6.47636012 -18 9 C-18.33 8.01 -18.66 7.02 -19 6 C-15.30510094 1.31979453 -12.21854577 0.22155378 -6.40234375 -0.8359375 C-3.9986468 -1.00009241 -2.28149614 -0.7271281 0 0 Z " fill="#E06917" transform="translate(49,50)"/>
<path d="M0 0 C2.84438258 1.46062889 3.76256764 2.39850468 4.9375 5.375 C5.01778367 8.74691421 3.94760118 10.30332144 2 13 C1 14 1 14 -2.3125 14.3125 C-6 14 -6 14 -8.4375 12.375 C-10.47161336 9.28314769 -10.60605429 7.63632575 -10 4 C-7.20125452 -0.09047416 -4.83066808 -0.70447243 0 0 Z " fill="#EC7923" transform="translate(53,56)"/>
<path d="M0 0 C2 1.625 2 1.625 3 4 C2.6875 7.75 2.6875 7.75 2 11 C1.34 11 0.68 11 0 11 C0 11.66 0 12.32 0 13 C-7.26948775 13.60579065 -7.26948775 13.60579065 -10.5625 10.875 C-12 8 -12 8 -12 4.875 C-11 2 -11 2 -9.375 0.0625 C-5.88680246 -1.49800943 -3.63567102 -0.99154664 0 0 Z " fill="#F78D3F" transform="translate(82,57)"/>
<path d="M0 0 C1.9375 1.0625 1.9375 1.0625 3 3 C3.36528977 6.4093712 3.6140629 8.88023824 1.9375 11.9375 C-1.11976176 13.6140629 -3.5906288 13.36528977 -7 13 C-8.9375 11.9375 -8.9375 11.9375 -10 10 C-10.36528977 6.5906288 -10.6140629 4.11976176 -8.9375 1.0625 C-5.88023824 -0.6140629 -3.4093712 -0.36528977 0 0 Z " fill="#FEB158" transform="translate(90,28)"/>
<path d="M0 0 C7.75 0.75 7.75 0.75 10 3 C7 4 7 4 2 4 C0.35 7.63 -1.3 11.26 -3 15 C-0.69 15.66 1.62 16.32 4 17 C4 17.66 4 18.32 4 19 C-2.93 19 -9.86 19 -17 19 C-16.67 18.34 -16.34 17.68 -16 17 C-13.71484375 16.5859375 -13.71484375 16.5859375 -10.9375 16.375 C-10.01839844 16.30023438 -9.09929688 16.22546875 -8.15234375 16.1484375 C-7.08693359 16.07496094 -7.08693359 16.07496094 -6 16 C-5.88785156 15.29488281 -5.77570312 14.58976562 -5.66015625 13.86328125 C-4.93685092 10.72610488 -3.80542309 8.09872094 -2.4375 5.1875 C-1.98246094 4.21167969 -1.52742188 3.23585937 -1.05859375 2.23046875 C-0.70925781 1.49441406 -0.35992187 0.75835938 0 0 Z " fill="#F18727" transform="translate(68,29)"/>
<path d="M0 0 C0.804375 0.350625 1.60875 0.70125 2.4375 1.0625 C8.12508297 2.55923236 13.38416734 1.48654394 19 0 C18.42562214 3.87705056 16.57271945 6.11543577 14 9 C11.11138291 10.44430855 9.20352299 10.37688506 6 10 C2.79329096 7.37632897 0.5676572 4.84788585 -1 1 C-0.67 0.67 -0.34 0.34 0 0 Z " fill="#C1450F" transform="translate(55,70)"/>
<path d="M0 0 C1.60433809 0.47859241 3.20846416 0.95789558 4.8125 1.4375 C6.15248047 1.83775391 6.15248047 1.83775391 7.51953125 2.24609375 C9.35473055 2.80387873 11.18033726 3.39344575 13 4 C14.093125 3.938125 15.18625 3.87625 16.3125 3.8125 C20.78310258 4.03981878 22.63201775 5.10196876 26 8 C27.5 10.5625 27.5 10.5625 28 13 C27.01 14.485 27.01 14.485 26 16 C25.34 13.36 24.68 10.72 24 8 C21.03 7.505 21.03 7.505 18 7 C19.65 9.31 21.3 11.62 23 14 C22.67 14.66 22.34 15.32 22 16 C21.34 16 20.68 16 20 16 C19.505 15.113125 19.01 14.22625 18.5 13.3125 C15.10039367 7.98645009 9.03062862 5.79471647 3.125 4.24609375 C0.75436594 3.76455871 -1.60554294 3.3413375 -4 3 C-2.68 2.67 -1.36 2.34 0 2 C0 1.34 0 0.68 0 0 Z " fill="#E2741B" transform="translate(72,46)"/>
<path d="M0 0 C0.495 0.99 0.495 0.99 1 2 C-5.13928002 10.96944457 -10.52356381 14.49374814 -21.3203125 16.59375 C-28.88070042 17.42844251 -36.5407732 16.18976874 -43 12 C-43.33 11.34 -43.66 10.68 -44 10 C-43.39671875 10.20496094 -42.7934375 10.40992187 -42.171875 10.62109375 C-41.37265625 10.89050781 -40.5734375 11.15992187 -39.75 11.4375 C-38.96109375 11.70433594 -38.1721875 11.97117187 -37.359375 12.24609375 C-27.36296437 15.44031105 -18.47471397 14.51176856 -9 10 C-4.82241925 7.3334591 -2.5812308 4.20645019 0 0 Z " fill="#A75225" transform="translate(90,70)"/>
<path d="M0 0 C2 1.0625 2 1.0625 4 3 C4.43060657 6.44485259 4.63335287 8.84506242 2.9375 11.9375 C-0.11976176 13.6140629 -2.5906288 13.36528977 -6 13 C-8 11.75 -8 11.75 -9 10 C-8.6875 7.8125 -8.6875 7.8125 -8 6 C-7.01 7.485 -7.01 7.485 -6 9 C-2.41642759 9.25015873 -2.41642759 9.25015873 1 9 C1.07427838 5.65747276 1.06546953 3.1964086 0 0 Z " fill="#FB8121" transform="translate(89,28)"/>
<path d="M0 0 C0.515625 0.825 1.03125 1.65 1.5625 2.5 C3.85789852 5.40072402 3.85789852 5.40072402 7.75 5.3125 C8.8225 5.209375 9.895 5.10625 11 5 C11.66 3.35 12.32 1.7 13 0 C13.66 0 14.32 0 15 0 C14.67 2.31 14.34 4.62 14 7 C13.34 7 12.68 7 12 7 C12 7.66 12 8.32 12 9 C9.14070376 9.23827469 6.80172792 9.43309153 4 9 C1.5 6.75 1.5 6.75 0 4 C0 2.68 0 1.36 0 0 Z " fill="#B64113" transform="translate(70,61)"/>
<path d="M0 0 C-5.19354839 4.08064516 -5.19354839 4.08064516 -9.125 3.6875 C-10.07375 3.460625 -11.0225 3.23375 -12 3 C-14.23966377 2.9751247 -14.23966377 2.9751247 -16 4 C-17.29660434 6.49034386 -17.29660434 6.49034386 -18 9 C-18.33 8.01 -18.66 7.02 -19 6 C-15.30510094 1.31979453 -12.21854577 0.22155378 -6.40234375 -0.8359375 C-3.9986468 -1.00009241 -2.28149614 -0.7271281 0 0 Z " fill="#D46A1B" transform="translate(49,50)"/>
<path d="M0 0 C7.75 0.75 7.75 0.75 10 3 C7.07175348 3.97608217 5.04386724 4.08226668 2 4 C0.68 6.64 -0.64 9.28 -2 12 C-2.66 12 -3.32 12 -4 12 C-3.33501617 7.61110675 -1.81242323 4.0188515 0 0 Z " fill="#F29830" transform="translate(68,29)"/>
<path d="M0 0 C0.66 0.99 1.32 1.98 2 3 C1.15955106 6.43183318 0.51471866 8.48528134 -2 11 C-5.375 11.375 -5.375 11.375 -9 11 C-11.4375 9 -11.4375 9 -13 7 C-12.34 6.34 -11.68 5.68 -11 5 C-10.34 5.66 -9.68 6.32 -9 7 C-5.41656024 7.16677282 -5.41656024 7.16677282 -2 7 C-1.34 4.69 -0.68 2.38 0 0 Z " fill="#C34814" transform="translate(56,59)"/>
<path d="M0 0 C1.11375 0.474375 2.2275 0.94875 3.375 1.4375 C8.17683359 3.26185255 12.90272966 3.69708844 18 4 C17.38640625 4.30164062 16.7728125 4.60328125 16.140625 4.9140625 C13.94942667 5.99021879 13.94942667 5.99021879 11.75 7.375 C7.98029952 8.23175011 6.03956634 7.01978317 2.671875 5.3359375 C0.61737698 3.69425918 0.36668142 2.55598522 0 0 Z " fill="#76230B" transform="translate(75,43)"/>
<path d="M0 0 C1.53668865 0.22467831 3.07968054 0.40796805 4.625 0.5625 C5.44226563 0.64628906 6.25953125 0.73007812 7.1015625 0.81640625 C7.72804688 0.87699219 8.35453125 0.93757813 9 1 C9 1.33 9 1.66 9 2 C7.0641649 2.36315666 5.12624752 2.71522731 3.1875 3.0625 C2.10855469 3.25972656 1.02960937 3.45695312 -0.08203125 3.66015625 C-3 4 -3 4 -6 3 C-7.66621616 2.96125079 -9.33394172 2.9549714 -11 3 C-11.33 2.01 -11.66 1.02 -12 0 C-4.68965517 -2.34482759 -4.68965517 -2.34482759 0 0 Z " fill="#952E13" transform="translate(51,47)"/>
<path d="M0 0 C-1.51837413 3.03674826 -4.18427006 3.62709489 -7.1875 5 C-9.17201523 5.87144569 -9.17201523 5.87144569 -10 8 C-11.32 7.67 -12.64 7.34 -14 7 C-12.73164821 3.05401664 -10.31064666 1.56019601 -6.8203125 -0.31640625 C-4.27830339 -1.27102341 -2.51232148 -0.91357145 0 0 Z " fill="#81260C" transform="translate(41,48)"/>
<path d="M0 0 C0.66 0 1.32 0 2 0 C2 2 2 2 0.4375 4.0625 C-2.70977135 6.56417723 -5.0239204 6.85273779 -9 7 C-9.66 6.34 -10.32 5.68 -11 5 C-11 4.34 -11 3.68 -11 3 C-10.28972656 2.86722656 -9.57945313 2.73445313 -8.84765625 2.59765625 C-7.92855469 2.42105469 -7.00945313 2.24445313 -6.0625 2.0625 C-4.68771484 1.80146484 -4.68771484 1.80146484 -3.28515625 1.53515625 C-1.04710156 1.22285012 -1.04710156 1.22285012 0 0 Z " fill="#DE5915" transform="translate(71,70)"/>
<path d="M0 0 C0.33 0 0.66 0 1 0 C0.53680089 4.72463088 -0.09891706 8.17057052 -3 12 C-3.66 12 -4.32 12 -5 12 C-5.33 8.7 -5.66 5.4 -6 2 C-4.02 2.99 -4.02 2.99 -2 4 C-1.34 2.68 -0.68 1.36 0 0 Z " fill="#F3771A" transform="translate(99,59)"/>
<path d="M0 0 C0.33 0.66 0.66 1.32 1 2 C0 4 0 4 -2.50390625 4.8515625 C-4.01791016 5.23441406 -4.01791016 5.23441406 -5.5625 5.625 C-6.57441406 5.88539062 -7.58632813 6.14578125 -8.62890625 6.4140625 C-9.41136719 6.60742188 -10.19382813 6.80078125 -11 7 C-10.81640625 5.109375 -10.81640625 5.109375 -10 3 C-7.71484375 1.953125 -7.71484375 1.953125 -4.9375 1.25 C-4.01839844 1.00765625 -3.09929688 0.7653125 -2.15234375 0.515625 C-1.44207031 0.34546875 -0.73179688 0.1753125 0 0 Z " fill="#83260C" transform="translate(59,41)"/>
<path d="M0 0 C-0.33 0.66 -0.66 1.32 -1 2 C-5.95 2 -10.9 2 -16 2 C-16 1.34 -16 0.68 -16 0 C-13.89651926 -0.19504458 -11.79217415 -0.38078496 -9.6875 -0.5625 C-8.51574219 -0.66691406 -7.34398438 -0.77132812 -6.13671875 -0.87890625 C-3 -1 -3 -1 0 0 Z " fill="#FE771C" transform="translate(73,89)"/>
<path d="M0 0 C0.99 0.33 1.98 0.66 3 1 C3.625 3.875 3.625 3.875 4 7 C3.34 7.66 2.68 8.32 2 9 C1.34 9 0.68 9 0 9 C0 6.03 0 3.06 0 0 Z " fill="#993810" transform="translate(27,55)"/>
<path d="M0 0 C2.64 0 5.28 0 8 0 C8 0.66 8 1.32 8 2 C3.05 3.485 3.05 3.485 -2 5 C-1.34 3.35 -0.68 1.7 0 0 Z " fill="#9A3411" transform="translate(70,32)"/>
<path d="M0 0 C0.66 0 1.32 0 2 0 C2 0.66 2 1.32 2 2 C2.66 2 3.32 2 4 2 C3.34 3.65 2.68 5.3 2 7 C1.34 7 0.68 7 0 7 C0 6.34 0 5.68 0 5 C-0.66 5 -1.32 5 -2 5 C-2 4.01 -2 3.02 -2 2 C-1.34 2 -0.68 2 0 2 C0 1.34 0 0.68 0 0 Z " fill="#C67C25" transform="translate(51,34)"/>
<path d="M0 0 C4.67692308 1.47692308 4.67692308 1.47692308 6.3125 4.125 C6.539375 4.74375 6.76625 5.3625 7 6 C6.34 6.66 5.68 7.32 5 8 C2.5 5.6875 2.5 5.6875 0 3 C0 2.01 0 1.02 0 0 Z " fill="#81270C" transform="translate(89,25)"/>
<path d="M0 0 C1.32 0.66 2.64 1.32 4 2 C2.35 3.98 0.7 5.96 -1 8 C-1.66 6.68 -2.32 5.36 -3 4 C-2.01 2.68 -1.02 1.36 0 0 Z " fill="#CA6313" transform="translate(38,53)"/>
<path d="M0 0 C0.99 0.33 1.98 0.66 3 1 C2.649375 1.61875 2.29875 2.2375 1.9375 2.875 C1.4734375 3.926875 1.4734375 3.926875 1 5 C1.33 5.66 1.66 6.32 2 7 C0.35 6.67 -1.3 6.34 -3 6 C-2.625 3.5625 -2.625 3.5625 -2 1 C-1.34 0.67 -0.68 0.34 0 0 Z " fill="#81270D" transform="translate(69,36)"/>
<path d="M0 0 C3.03956213 1.51978106 4.72283352 2.51797133 6.4375 5.5 C6.623125 6.325 6.80875 7.15 7 8 C6.01 9.485 6.01 9.485 5 11 C4.7525 9.72125 4.505 8.4425 4.25 7.125 C3.48009414 3.73252682 3.48009414 3.73252682 0.875 1.5 C0.25625 1.335 -0.3625 1.17 -1 1 C-0.67 0.67 -0.34 0.34 0 0 Z " fill="#B25613" transform="translate(93,51)"/>
<path d="M0 0 C-5.625 4 -5.625 4 -9 4 C-8 1 -8 1 -6.1875 -0.25 C-3.66056586 -1.11637742 -2.47778006 -0.88492145 0 0 Z " fill="#F68522" transform="translate(49,50)"/>
<path d="M0 0 C1.00289062 0.10183594 2.00578125 0.20367187 3.0390625 0.30859375 C3.80992188 0.39238281 4.58078125 0.47617187 5.375 0.5625 C5.375 0.8925 5.375 1.2225 5.375 1.5625 C1.415 2.2225 -2.545 2.8825 -6.625 3.5625 C-6.955 2.5725 -7.285 1.5825 -7.625 0.5625 C-4.89657939 -0.80171031 -3.01546682 -0.31557211 0 0 Z " fill="#BA6218" transform="translate(54.625,47.4375)"/>
<path d="M0 0 C1.98 0 3.96 0 6 0 C6 0.99 6 1.98 6 3 C3.69 3.33 1.38 3.66 -1 4 C-0.67 2.68 -0.34 1.36 0 0 Z " fill="#9B3512" transform="translate(83,25)"/>
<path d="M0 0 C2.79872437 2.52788007 4.45773019 4.20411134 5 8 C4.01 8 3.02 8 2 8 C0.74335022 5.09399739 0 3.20395416 0 0 Z " fill="#CE6B10" transform="translate(90,54)"/>
<path d="M0 0 C1.32 0 2.64 0 4 0 C3.67 1.32 3.34 2.64 3 4 C1.68 3.67 0.36 3.34 -1 3 C-0.67 2.01 -0.34 1.02 0 0 Z " fill="#FEECE1" transform="translate(50,58)"/>
<path d="M0 0 C0.66 0.66 1.32 1.32 2 2 C1.34 2 0.68 2 0 2 C0 1.34 0 0.68 0 0 Z " fill="#7C5015" transform="translate(44,78)"/>
<path d="M0 0 C0.66 0 1.32 0 2 0 C1.67 0.66 1.34 1.32 1 2 C0.67 1.34 0.34 0.68 0 0 Z " fill="#A37B21" transform="translate(40,75)"/>
<path d="" fill="#B07200" transform="translate(0,0)"/>
<path d="" fill="#4D1600" transform="translate(0,0)"/>
</svg>
